<svg xmlns="http://www.w3.org/2000/svg" width="400" height="400" viewBox="0 0 400 400" version="1.1"><path d="M 145.500 147.970 C 139.321 149.611, 127 154.604, 127 155.466 C 127 155.642, 127.698 156.054, 128.552 156.382 C 129.495 156.744, 129.848 156.563, 129.452 155.922 C 129.093 155.341, 129.407 154.950, 130.150 155.052 C 132.895 155.429, 134.102 154.974, 133.395 153.830 C 132.904 153.036, 133.224 152.872, 134.388 153.319 C 135.499 153.745, 135.865 153.591, 135.427 152.881 C 134.982 152.162, 135.430 152.002, 136.734 152.416 C 139.092 153.164, 142.218 152.162, 141.442 150.907 C 141.142 150.421, 141.487 150.250, 142.209 150.527 C 143.617 151.067, 157.518 147.815, 158.653 146.681 C 159.948 145.385, 152.471 146.118, 145.500 147.970 M 191 148 C 189.464 148.492, 193.125 148.788, 200.500 148.767 C 209.931 148.740, 211.430 148.566, 207.500 147.954 C 201.108 146.958, 194.192 146.978, 191 148 M 220.762 149.707 C 222.006 149.946, 223.806 149.937, 224.762 149.687 C 225.718 149.437, 224.700 149.241, 222.500 149.252 C 220.300 149.263, 219.518 149.468, 220.762 149.707 M 230.250 150.689 C 231.213 150.941, 232.787 150.941, 233.750 150.689 C 234.713 150.438, 233.925 150.232, 232 150.232 C 230.075 150.232, 229.287 150.438, 230.250 150.689 M 276.280 170.156 C 275.257 170.560, 276.945 170.889, 280.250 170.930 C 283.413 170.968, 286 170.822, 286 170.605 C 286 169.833, 278.030 169.465, 276.280 170.156 M 233 170.945 C 231.042 171.529, 231.948 171.856, 237.175 172.454 C 240.846 172.874, 244.446 172.979, 245.175 172.687 C 245.904 172.396, 245.375 172.063, 244 171.947 C 241.925 171.773, 242.095 171.611, 245 171 C 247.872 170.395, 247.334 170.258, 242 170.231 C 238.425 170.214, 234.375 170.535, 233 170.945 M 102.924 173.750 L 100.500 176.500 103.250 174.076 C 104.763 172.742, 106 171.505, 106 171.326 C 106 170.541, 105.190 171.180, 102.924 173.750 M 293.269 171.693 C 294.242 171.947, 295.592 171.930, 296.269 171.656 C 296.946 171.382, 296.150 171.175, 294.500 171.195 C 292.850 171.215, 292.296 171.439, 293.269 171.693 M 303.269 172.693 C 304.242 172.947, 305.592 172.930, 306.269 172.656 C 306.946 172.382, 306.150 172.175, 304.500 172.195 C 302.850 172.215, 302.296 172.439, 303.269 172.693 M 312.269 173.693 C 313.242 173.947, 314.592 173.930, 315.269 173.656 C 315.946 173.382, 315.150 173.175, 313.500 173.195 C 311.850 173.215, 311.296 173.439, 312.269 173.693 M 350.500 181.084 C 352.229 181.900, 352.135 181.978, 349.803 181.663 C 348.320 181.462, 345.395 181.629, 343.303 182.034 C 339.551 182.760, 339.543 182.772, 342.701 182.885 C 347.779 183.067, 356.288 185.065, 358.820 186.669 C 360.097 187.477, 362.009 190.020, 363.069 192.319 C 364.873 196.231, 364.960 196.291, 364.421 193.259 C 363.705 189.231, 358.556 183.195, 354.282 181.372 C 350.709 179.848, 347.337 179.592, 350.500 181.084 M 82.592 187.093 C 69.347 194.740, 47.205 203.499, 23.250 210.568 C 22.563 210.771, 22 211.437, 22 212.048 C 22 213.632, 26.166 212.629, 43 206.993 C 59.421 201.495, 79.550 192.907, 79.401 191.462 C 79.295 190.432, 81.969 188.084, 83.309 188.032 C 83.754 188.014, 83.797 188.520, 83.405 189.155 C 82.959 189.876, 83.131 190.037, 83.862 189.585 C 84.506 189.187, 84.774 188.443, 84.457 187.931 C 84.141 187.419, 84.246 186.990, 84.691 186.978 C 85.136 186.966, 86.625 186.076, 88 185 C 91.710 182.098, 90.293 182.646, 82.592 187.093 M 284.239 185.062 C 288.898 187.522, 291.406 191.147, 290.476 194.076 C 290.009 195.547, 290.144 196.029, 290.893 195.566 C 291.502 195.190, 292.045 193.671, 292.100 192.191 L 292.199 189.500 293 192 L 293.801 194.500 293.900 191.854 C 294.040 188.148, 288.070 182.984, 283.715 183.044 L 280.500 183.088 284.239 185.062 M 286 184.277 C 286 184.468, 287.462 185.695, 289.250 187.003 C 291.261 188.475, 291.960 188.717, 291.082 187.637 C 289.751 185.997, 286 183.517, 286 184.277 M 308.917 188.558 C 310.711 190.602, 312 193.183, 312 194.735 C 312 196.695, 312.295 197.105, 313.115 196.285 C 313.936 195.464, 313.808 194.322, 312.631 191.963 C 311.752 190.200, 311.249 188.406, 311.515 187.976 C 311.780 187.546, 310.611 186.711, 308.915 186.120 L 305.833 185.046 308.917 188.558 M 75 192.500 C 73.625 193.286, 72.950 193.929, 73.500 193.929 C 74.050 193.929, 75.625 193.286, 77 192.500 C 78.375 191.714, 79.050 191.071, 78.500 191.071 C 77.950 191.071, 76.375 191.714, 75 192.500 M 229.431 193.111 C 229.124 193.608, 229.689 194.305, 230.687 194.661 C 231.684 195.017, 232.907 195.534, 233.405 195.809 C 233.909 196.088, 233.953 195.734, 233.505 195.009 C 232.883 194.001, 233.354 193.872, 235.599 194.435 C 237.192 194.835, 238.195 194.862, 237.827 194.494 C 236.605 193.272, 230.004 192.185, 229.431 193.111 M 113.173 205.554 C 113.376 207.269, 114.165 208.416, 115.250 208.572 C 117.094 208.836, 117.641 207.514, 116.085 206.553 C 115.582 206.242, 114.912 206.553, 114.595 207.244 C 114.278 207.935, 114.258 207.525, 114.550 206.334 C 114.842 205.143, 114.579 203.858, 113.964 203.478 C 113.219 203.018, 112.956 203.710, 113.173 205.554 M 129.750 215.706 C 130.988 215.944, 133.012 215.944, 134.250 215.706 C 135.488 215.467, 134.475 215.272, 132 215.272 C 129.525 215.272, 128.512 215.467, 129.750 215.706 M 144 216.095 C 144 216.593, 146.100 217, 148.667 217 C 151.233 217, 153.146 216.837, 152.917 216.638 C 151.909 215.761, 144 215.280, 144 216.095 M 159.434 216.893 C 159.837 217.546, 163.685 218.058, 168.809 218.142 C 175.305 218.248, 176.490 218.449, 173.500 218.937 C 170.461 219.433, 172.420 219.784, 181.651 220.399 C 193.855 221.213, 203.450 220.514, 200.986 218.991 C 200.284 218.558, 191.788 217.907, 182.105 217.546 C 172.422 217.185, 163.206 216.641, 161.625 216.338 C 159.668 215.962, 158.968 216.140, 159.434 216.893 M 116.496 224.007 C 116.153 224.561, 116.622 225.302, 117.538 225.653 C 118.453 226.004, 119.495 225.816, 119.854 225.236 C 120.213 224.655, 121.855 223.982, 123.503 223.740 C 125.684 223.420, 125.223 223.259, 121.809 223.150 C 119.229 223.067, 116.838 223.453, 116.496 224.007 M 164.500 223.985 L 179.500 224.551 166 225.057 L 152.500 225.563 171 225.771 C 190.227 225.986, 198.200 225.376, 195.827 223.872 C 195.097 223.409, 184.375 223.118, 172 223.225 C 149.918 223.415, 149.779 223.429, 164.500 223.985 M 260.877 224.097 C 260.002 224.651, 261.658 224.975, 265.417 224.985 C 268.671 224.993, 271.146 224.837, 270.917 224.638 C 269.877 223.733, 262.112 223.315, 260.877 224.097 M 252.156 230.080 C 251.551 231.699, 251.624 232.740, 252.376 233.225 C 253.993 234.267, 255.648 230.248, 254.198 228.798 C 253.349 227.949, 252.832 228.273, 252.156 230.080 M 80.531 230.949 C 79.673 232.339, 86.482 233.521, 94.388 233.356 C 98.176 233.276, 100.811 233.501, 100.242 233.856 C 99.674 234.210, 103.466 234.567, 108.670 234.649 C 113.873 234.731, 117.973 234.640, 117.780 234.447 C 117.512 234.179, 83.437 230, 81.520 230 C 81.299 230, 80.854 230.427, 80.531 230.949 M 295.750 231.706 C 296.988 231.944, 299.012 231.944, 300.250 231.706 C 301.488 231.467, 300.475 231.272, 298 231.272 C 295.525 231.272, 294.512 231.467, 295.750 231.706 M 311.474 231.958 C 311.844 232.557, 315.986 233, 321.226 233 C 326.235 233, 330.146 232.836, 329.917 232.636 C 329.688 232.436, 325.299 231.967, 320.165 231.594 C 313.782 231.130, 311.033 231.245, 311.474 231.958 M 345 232 L 339.500 232.674 345.250 232.837 C 348.525 232.930, 351 232.570, 351 232 C 351 231.450, 350.887 231.073, 350.750 231.163 C 350.613 231.253, 348.025 231.629, 345 232 M 357.269 231.693 C 358.242 231.947, 359.592 231.930, 360.269 231.656 C 360.946 231.382, 360.150 231.175, 358.500 231.195 C 356.850 231.215, 356.296 231.439, 357.269 231.693 M 123.250 235.689 C 124.213 235.941, 125.787 235.941, 126.750 235.689 C 127.713 235.438, 126.925 235.232, 125 235.232 C 123.075 235.232, 122.287 235.438, 123.250 235.689 M 134.250 236.689 C 135.213 236.941, 136.787 236.941, 137.750 236.689 C 138.713 236.438, 137.925 236.232, 136 236.232 C 134.075 236.232, 133.287 236.438, 134.250 236.689 M 145.750 237.706 C 146.988 237.944, 149.012 237.944, 150.250 237.706 C 151.488 237.467, 150.475 237.272, 148 237.272 C 145.525 237.272, 144.512 237.467, 145.750 237.706 M 154.915 238.315 C 155.367 238.767, 157.483 238.984, 159.618 238.797 L 163.500 238.458 158.796 237.975 C 156.210 237.710, 154.463 237.863, 154.915 238.315 M 166 238.955 C 166.825 239.513, 170.425 240.008, 174 240.055 C 178.569 240.115, 179.906 240.396, 178.500 241 C 177.223 241.549, 180.476 241.862, 187.500 241.866 C 200.381 241.874, 199.044 240.442, 185.319 239.529 C 180.469 239.206, 173.800 238.717, 170.500 238.442 C 166.259 238.088, 164.940 238.238, 166 238.955 M 228 250 C 228 250.550, 229.238 250.993, 230.750 250.985 C 232.893 250.973, 233.169 250.755, 232 250 C 230.043 248.736, 228 248.736, 228 250" stroke="none" fill="#79ddad" fill-rule="evenodd"/><path d="M 185.423 148.917 C 185.190 149.146, 185 149.644, 185 150.024 C 185 150.929, 202.456 166.127, 205.300 167.698 C 206.910 168.587, 216.087 168.883, 239.500 168.803 C 257.100 168.742, 274.538 169.032, 278.250 169.447 C 282.953 169.973, 285 169.868, 285 169.101 C 285 168.112, 284.267 167.830, 282.362 168.085 C 282.011 168.132, 281.447 167.724, 281.110 167.178 C 280.475 166.150, 256.204 156.175, 253.198 155.707 C 252.264 155.561, 250.938 155.091, 250.250 154.662 C 249.563 154.233, 248.993 154.246, 248.985 154.691 C 248.976 155.136, 248.577 154.881, 248.098 154.125 C 247.619 153.369, 246.051 152.750, 244.614 152.750 C 243.176 152.750, 242 152.348, 242 151.856 C 242 151.364, 240.875 151.244, 239.500 151.589 C 238.065 151.949, 237 151.785, 237 151.204 C 237 150.599, 235.388 150.407, 233 150.727 C 230.462 151.067, 229 150.867, 229 150.179 C 229 149.461, 227.258 149.301, 223.843 149.705 C 220.652 150.083, 218.913 149.950, 219.280 149.356 C 219.852 148.430, 186.357 147.995, 185.423 148.917 M 157.475 152.041 C 157.121 152.613, 156.007 152.820, 155 152.500 C 153.993 152.180, 152.891 152.367, 152.552 152.916 C 152.213 153.464, 151.275 153.659, 150.468 153.349 C 149.661 153.040, 149 153.228, 149 153.768 C 149 154.308, 147.988 154.751, 146.750 154.753 C 143.578 154.758, 137 157.668, 137 159.067 C 137 159.710, 138.337 161.759, 139.971 163.620 C 141.606 165.482, 143.968 168.832, 145.221 171.067 L 147.500 175.128 157 174.586 C 162.225 174.288, 173.137 173.762, 181.250 173.418 C 190.535 173.024, 196 172.401, 196 171.737 C 196 171.157, 194.204 168.302, 192.008 165.394 C 187.572 159.519, 181.155 154.672, 174.885 152.460 C 170.124 150.780, 158.428 150.498, 157.475 152.041 M 134.013 152.971 C 132.844 153.710, 133.004 153.875, 134.763 153.743 C 135.993 153.650, 137 153.220, 137 152.787 C 137 151.744, 135.841 151.815, 134.013 152.971 M 130.500 154 C 131.086 154.949, 130.656 155.168, 127.750 155.400 C 127.063 155.455, 125.696 156.304, 124.714 157.286 C 123.731 158.269, 122.541 158.834, 122.068 158.542 C 121.596 158.250, 120.941 158.712, 120.612 159.569 C 120.283 160.426, 119.608 160.876, 119.112 160.569 C 118.616 160.262, 117.941 160.712, 117.612 161.569 C 117.283 162.426, 116.592 162.866, 116.075 162.547 C 115.559 162.228, 114.431 162.974, 113.568 164.206 C 112.706 165.437, 111.982 166.007, 111.961 165.473 C 111.940 164.938, 109.424 167.200, 106.370 170.500 C 103.317 173.800, 101.123 175.825, 101.496 175 C 101.869 174.175, 101.260 174.625, 100.144 176 C 99.028 177.375, 97.622 178.500, 97.021 178.500 C 96.419 178.500, 95.500 179.175, 94.979 180 C 94.457 180.825, 94.024 181.076, 94.015 180.559 C 94.007 180.041, 93.339 180.491, 92.532 181.559 C 91.724 182.626, 91.049 183.162, 91.032 182.750 C 91.014 182.338, 90.084 182.916, 88.964 184.036 C 87.843 185.157, 86.424 185.762, 85.809 185.382 C 85.194 185.002, 84.964 185.133, 85.298 185.673 C 85.632 186.213, 83.033 188.189, 79.523 190.065 C 76.013 191.940, 73.265 193.598, 73.416 193.749 C 73.905 194.238, 82.897 189.975, 83.528 188.955 C 83.863 188.412, 84.507 188.195, 84.957 188.473 C 86.275 189.288, 99.783 179.993, 109.513 171.576 C 114.456 167.300, 121.539 161.780, 125.252 159.309 C 128.966 156.838, 131.752 154.408, 131.443 153.908 C 131.135 153.409, 130.657 153, 130.382 153 C 130.107 153, 130.160 153.450, 130.500 154 M 125.293 163.645 C 119.484 167.082, 110.109 175.467, 111.062 176.374 C 111.956 177.224, 144 174.558, 144 173.635 C 144 171.973, 137.848 163.007, 135.654 161.470 C 132.739 159.428, 132.247 159.531, 125.293 163.645 M 230 171.046 C 228.905 171.787, 229.309 171.880, 231.500 171.390 C 235.177 170.567, 235.975 169.995, 233.417 170.015 C 232.363 170.024, 230.825 170.487, 230 171.046 M 245 170.899 L 241.500 171.575 245 172.277 C 246.925 172.664, 253 173.437, 258.500 173.997 C 274.270 175.601, 299.084 180.026, 303.824 182.080 C 306.658 183.307, 307.893 184.364, 307.410 185.146 C 306.894 185.980, 307.220 186.130, 308.490 185.642 C 309.897 185.102, 312.316 186.997, 319.155 193.994 C 324.020 198.972, 328 202.616, 328 202.093 C 328 201.571, 327.293 200.436, 326.429 199.571 C 325.564 198.707, 325.156 198, 325.520 198 C 325.885 198, 324.542 195.014, 322.537 191.365 C 318.509 184.037, 318.550 181.942, 322.719 182.116 C 324.248 182.180, 324.751 182.430, 323.835 182.673 C 322.919 182.915, 321.912 183.786, 321.597 184.608 C 320.818 186.637, 326.126 196.850, 329.742 200.280 C 332.639 203.029, 332.861 203.067, 349.336 203.687 L 366 204.313 366 201.546 L 366 198.778 367.929 201.139 C 369.382 202.918, 370.145 203.218, 371.023 202.356 C 371.907 201.487, 371.675 200.054, 370.057 196.397 C 367.731 191.137, 365.077 188.166, 362.292 187.701 C 361.306 187.537, 359.600 186.915, 358.500 186.321 C 356.054 184.998, 347.057 183.042, 342.701 182.885 C 339.543 182.772, 339.551 182.760, 343.303 182.034 C 345.395 181.629, 348.320 181.439, 349.803 181.613 C 351.286 181.786, 351.712 181.686, 350.750 181.391 C 349.788 181.095, 349 180.450, 349 179.958 C 349 179.466, 348.325 179.322, 347.500 179.638 C 346.674 179.955, 346 179.668, 346 179 C 346 178.290, 345.325 178.045, 344.373 178.410 C 343.479 178.754, 342.241 178.629, 341.623 178.133 C 339.903 176.752, 331.400 175.201, 328.543 175.747 C 326.999 176.042, 326 175.777, 326 175.071 C 326 174.276, 324.849 174.125, 322.355 174.593 C 319.621 175.106, 318.898 174.973, 319.462 174.061 C 320.032 173.139, 319.102 173.012, 315.607 173.536 C 312.353 174.024, 311 173.882, 311 173.052 C 311 172.227, 309.663 172.078, 306.500 172.552 C 303.279 173.035, 302 172.884, 302 172.020 C 302 171.146, 300.619 171.002, 297 171.500 C 294.250 171.878, 292 171.808, 291.999 171.344 C 291.999 170.331, 249.995 169.933, 245 170.899 M 273.655 183.829 C 268.655 189.354, 276.125 197.230, 286.292 197.151 C 292.124 197.106, 294.045 195.621, 292.953 192 L 292.199 189.500 292.100 192.191 C 292.045 193.671, 291.532 195.171, 290.960 195.525 C 290.296 195.935, 290.136 195.308, 290.516 193.791 C 290.918 192.192, 290.416 190.527, 288.984 188.707 C 286.571 185.639, 287.321 185.133, 290.404 187.750 C 292.378 189.426, 292.406 189.423, 291.065 187.695 C 289.440 185.601, 285.341 183.125, 286.438 184.900 C 287.465 186.562, 285.873 186.220, 282.226 183.996 C 278.159 181.517, 275.789 181.470, 273.655 183.829 M 294.477 184.394 C 292.358 187.629, 293.417 191.281, 297.520 194.883 C 302.494 199.251, 306.827 200.388, 311.328 198.507 C 314.316 197.259, 315 196.452, 315 194.178 C 315 191.293, 312.615 187.051, 311.577 188.089 C 311.255 188.412, 311.720 190.136, 312.611 191.922 C 313.803 194.311, 313.936 195.464, 313.115 196.285 C 312.295 197.105, 312 196.695, 312 194.735 C 312 193.180, 310.707 190.597, 308.896 188.535 C 307.189 186.591, 306.177 184.966, 306.646 184.924 C 308.242 184.782, 300.512 182.153, 298.273 182.076 C 296.969 182.032, 295.396 182.992, 294.477 184.394 M 362.765 192.084 C 363.616 194.250, 364.470 195.864, 364.663 195.670 C 365.459 194.874, 363.678 189.091, 362.497 188.637 C 361.533 188.267, 361.599 189.115, 362.765 192.084 M 235 195.779 C 239.951 199.187, 241.912 201.889, 243.567 207.582 C 245.929 215.706, 245.170 230.496, 242.018 237.773 C 239.729 243.057, 235.092 248, 232.423 248 C 229.835 248, 230.944 249.764, 234.400 251.143 C 236.721 252.069, 240.341 252.341, 245.809 252 C 252.897 251.558, 254.262 251.142, 257.660 248.392 C 262.954 244.107, 263.142 242.212, 258.311 241.814 C 254.684 241.515, 254.485 241.317, 254.186 237.694 C 254.009 235.547, 253.247 233.648, 252.436 233.337 C 250.523 232.603, 250.625 231.087, 252.750 228.657 C 253.713 227.556, 253.994 226.951, 253.374 227.310 C 252.592 227.765, 252.109 225.452, 251.791 219.732 C 251.008 205.676, 244.717 195.355, 236.393 194.471 L 232.500 194.058 235 195.779 M 114.381 208.500 C 114.950 213.233, 117.035 216.780, 119.880 217.853 C 123.279 219.136, 167.130 220.141, 173 219.071 C 176.997 218.342, 176.528 218.236, 168.809 218.125 C 164.029 218.056, 159.830 217.535, 159.479 216.966 C 159.069 216.303, 156.173 216.173, 151.420 216.604 C 145.815 217.111, 144 216.972, 144 216.034 C 144 215.087, 142.066 214.963, 135.870 215.512 C 129.983 216.033, 127.929 215.923, 128.429 215.116 C 128.876 214.392, 128.091 214, 126.197 214 C 123.489 214, 116.658 209.617, 114.767 206.666 C 114.356 206.025, 114.182 206.850, 114.381 208.500 M 127 222.940 C 126.175 223.506, 124.263 223.976, 122.750 223.985 C 121.237 223.993, 120 224.450, 120 225 C 120 226.205, 132.192 226.282, 159.589 225.250 L 179.500 224.500 164.500 223.830 C 156.250 223.461, 144.775 222.878, 139 222.535 C 132.390 222.141, 127.944 222.291, 127 222.940 M 259.250 223.662 C 257.880 224.215, 257.483 235.654, 258.765 237.634 C 260.560 240.405, 312.749 242.316, 345.500 240.810 C 361.428 240.078, 370.751 238.697, 375.159 236.418 C 378.025 234.936, 380.029 230.843, 378.189 230.230 C 377.597 230.032, 377.360 229.225, 377.663 228.435 C 378.382 226.561, 374.553 226.493, 372.819 228.349 C 372.126 229.091, 370.758 229.488, 369.780 229.232 C 368.801 228.976, 368 229.241, 368 229.820 C 368 230.466, 366.645 230.654, 364.500 230.306 C 362.096 229.916, 361 230.122, 361 230.963 C 361 231.858, 359.653 232.002, 356 231.500 C 353.193 231.114, 351 231.207, 351 231.713 C 351 233.005, 312.837 233.110, 311.285 231.822 C 310.500 231.170, 306.981 231.034, 301.770 231.452 C 295.913 231.922, 293.938 231.811, 295 231.073 C 296.178 230.254, 295.810 230.027, 293.285 230.015 C 291.126 230.005, 288.903 228.975, 286.517 226.881 L 282.965 223.762 271.233 224.432 C 263.027 224.900, 259.951 224.790, 261 224.066 C 262.538 223.004, 261.484 222.761, 259.250 223.662 M 96.704 234.104 C 97.495 234.895, 98.330 234.903, 99.654 234.134 C 101.272 233.193, 101.136 233.057, 98.550 233.030 C 96.399 233.008, 95.899 233.299, 96.704 234.104 M 102.561 234.857 C 104.540 236.618, 140.791 240.905, 158.018 241.415 C 177.182 241.983, 185.873 241.026, 173 239.766 C 168.875 239.362, 163.179 239.048, 160.341 239.068 C 157.504 239.088, 154.930 238.696, 154.621 238.196 C 154.313 237.697, 151.796 237.505, 149.030 237.771 C 145.518 238.109, 144 237.893, 144 237.055 C 144 236.185, 142.491 236.045, 138.500 236.543 C 134.487 237.045, 133 236.904, 133 236.021 C 133 235.147, 131.629 235.001, 128.046 235.494 C 125.321 235.868, 122.551 235.841, 121.891 235.432 C 120.208 234.393, 101.410 233.833, 102.561 234.857 M 249.490 236.347 C 249.075 237.914, 247.151 241.289, 245.216 243.847 C 243.181 246.538, 242.649 247.657, 243.952 246.501 C 246.980 243.817, 251.289 236.334, 250.711 234.763 C 250.456 234.068, 249.906 234.781, 249.490 236.347 M 313 244.174 C 313 245.765, 320.820 251.112, 325.346 252.615 C 333.528 255.333, 343.066 253.272, 352.250 246.801 C 353.762 245.736, 355 244.535, 355 244.134 C 355 243.732, 345.550 243.424, 334 243.448 C 322.450 243.473, 313 243.799, 313 244.174" stroke="none" fill="#0abe67" fill-rule="evenodd"/></svg>